PathFileType	4	(X/Y/Z)	/Users/itak/Documents/Research/Walk-IL/dataset/trc/00155_00007.trc
DataRate	CameraRate	NumFrames	NumMarkers	Units	OrigDataRate	OrigDataStartFrame	OrigNumFrames
100.000000	100.000000	4	53	mm	100.000000	141	565
Frame#	Time	RPSI			LPSI			L3			STRN			T10			C7			CLAV			RBAK			LBAK			LSHO			LUPA			LAEL			LAOL			LWTS			LWPS			LFRA			LIFD			LHPS			LHTS			RSHO			RUPA			RAEL			RAOL			RWTS			RWPS			RFRA			RIFD			RHTS			RHPS			RBHD			LFHD			RFHD			LBHD			LHIP			RHIP			RASI			LASI			LKNE			LTHI			LANK			LTIP			LTOE			LMT1			LMT5			LHEE			RKNE			RTHI			RANK			RTIP			RTOE			RMT1			RMT5			RHEE			
		X1	Y1	Z1	X2	Y2	Z2	X3	Y3	Z3	X4	Y4	Z4	X5	Y5	Z5	X6	Y6	Z6	X7	Y7	Z7	X8	Y8	Z8	X9	Y9	Z9	X10	Y10	Z10	X11	Y11	Z11	X12	Y12	Z12	X13	Y13	Z13	X14	Y14	Z14	X15	Y15	Z15	X16	Y16	Z16	X17	Y17	Z17	X18	Y18	Z18	X19	Y19	Z19	X20	Y20	Z20	X21	Y21	Z21	X22	Y22	Z22	X23	Y23	Z23	X24	Y24	Z24	X25	Y25	Z25	X26	Y26	Z26	X27	Y27	Z27	X28	Y28	Z28	X29	Y29	Z29	X30	Y30	Z30	X31	Y31	Z31	X32	Y32	Z32	X33	Y33	Z33	X34	Y34	Z34	X35	Y35	Z35	X36	Y36	Z36	X37	Y37	Z37	X38	Y38	Z38	X39	Y39	Z39	X40	Y40	Z40	X41	Y41	Z41	X42	Y42	Z42	X43	Y43	Z43	X44	Y44	Z44	X45	Y45	Z45	X46	Y46	Z46	X47	Y47	Z47	X48	Y48	Z48	X49	Y49	Z49	X50	Y50	Z50	X51	Y51	Z51	X52	Y52	Z52	X53	Y53	Z53	

142	1.41	-1304.650146484375	1123.9013671875	-549.6036376953125	-1303.112060546875	1123.91796875	-684.612548828125	-1309.696899414062	1156.506591796875	-620.50830078125	-1090.410400390625	1351.157470703125	-622.0492553710938	-1345.27392578125	1306.5185546875	-625.3453369140625	-1306.16552734375	1598.01806640625	-643.345458984375	-1124.769287109375	1486.45654296875	-628.6812133789062	-1365.87109375	1416.426635742188	-552.9915161132812	-1310.734008789062	1576.76806640625	-745.9498291015625	-1222.529296875	1559.020751953125	-811.3591918945312	-1242.040161132812	1425.876586914062	-879.4405517578125	-1225.711181640625	1203.789428710938	-891.5755004882812	-1294.452270507812	1194.009765625	-838.2113037109375	-1129.31689453125	948.6768188476562	-830.5491943359375	-1208.408325195312	921.612548828125	-862.1046752929688	-1209.103149414062	1087.489624023438	-889.5281372070312	-1119.465209960938	755.5039672851562	-800.3470458984375	-1179.362915039062	846.6675415039062	-856.2888793945312	-1115.928955078125	858.867431640625	-835.6968383789062	-1256.4580078125	1582.630493164062	-460.8059692382812	-1276.307739257812	1510.981323242188	-395.8157043457031	-1287.303100585938	1215.174682617188	-370.4617004394531	-1295.580932617188	1213.857421875	-466.7273864746094	-1146.618286132812	970.8953857421875	-386.5425109863281	-1219.878295898438	955.1930541992188	-352.1143188476562	-1263.859497070312	1142.070190429688	-354.5809936523438	-1123.216064453125	776.500244140625	-402.1624450683594	-1118.3916015625	863.0560913085938	-380.986083984375	-1183.784423828125	855.2550659179688	-347.951904296875	-1265.724609375	1769.988525390625	-565.1885986328125	-1096.590454101562	1831.034790039062	-691.9705200195312	-1100.832275390625	1834.857177734375	-562.5169067382812	-1269.260131835938	1770.08740234375	-700.5582275390625	-1214.842407226562	1029.350708007812	-789.2401733398438	-1182.1484375	1025.285522460938	-429.0345458984375	-1098.230346679688	1095.674560546875	-483.6041564941406	-1104.815795898438	1090.372314453125	-750.2041625976562	-1215.83740234375	526.9207763671875	-735.6626586914062	-1228.416137695312	672.6364135742188	-771.3660278320312	-1351.962036132812	33.76853561401367	-701.7685546875	-1326.508666992188	284.7547607421875	-749.1214599609375	-1120.3994140625	35.52401351928711	-645.2123413085938	-1201.773681640625	40.55103302001953	-612.3474731445312	-1228.500732421875	32.2938232421875	-729.2069702148438	-1419.724609375	35.38034439086914	-638.9395751953125	-1188.48583984375	530.0228881835938	-457.4242858886719	-1164.517578125	810.1871337890625	-434.6231994628906	-1351.79150390625	30.99994277954102	-450.8330078125	-1231.149780273438	398.9596557617188	-440.371826171875	-1123.944091796875	41.58662414550781	-513.879638671875	-1186.248779296875	30.44231796264648	-553.451416015625	-1217.341430664062	37.69744873046875	-436.4696655273438	-1411.881103515625	32.97805404663086	-495.9606018066406	
143	1.42	-1304.306030273438	1123.565673828125	-550.201416015625	-1302.778564453125	1123.84033203125	-685.2711791992188	-1309.254516601562	1156.484619140625	-621.197998046875	-1089.461791992188	1350.750244140625	-622.9080810546875	-1344.42041015625	1306.729736328125	-626.0930786132812	-1304.59033203125	1598.115356445312	-644.1681518554688	-1123.454223632812	1486.150756835938	-629.5219116210938	-1364.721923828125	1416.648315429688	-553.7894897460938	-1309.194946289062	1576.879638671875	-746.7672119140625	-1221.019897460938	1558.963256835938	-812.18896484375	-1240.786254882812	1425.860473632812	-880.28759765625	-1224.765747070312	1203.707763671875	-892.424560546875	-1293.538940429688	1194.0517578125	-839.12451171875	-1128.730590820312	948.4727172851562	-831.2808837890625	-1207.890502929688	921.5244750976562	-862.9077758789062	-1208.32275390625	1087.38134765625	-890.3505249023438	-1119.1455078125	755.3052368164062	-801.078857421875	-1178.913452148438	846.5314331054688	-857.06640625	-1115.46142578125	858.6832885742188	-836.4630126953125	-1254.851196289062	1582.610107421875	-461.6066589355469	-1274.849731445312	1510.97998046875	-396.5828247070312	-1286.499755859375	1215.200805664062	-371.2378845214844	-1294.738037109375	1213.8818359375	-467.4810485839844	-1146.015380859375	970.7911987304688	-387.2538757324219	-1219.2685546875	955.1276245117188	-352.837646484375	-1263.167236328125	1142.051635742188	-355.3534851074219	-1122.822875976562	776.3307495117188	-402.8876647949219	-1117.944580078125	862.9007568359375	-381.7093811035156	-1183.276611328125	855.1791381835938	-348.6717224121094	-1263.921142578125	1769.7978515625	-565.92138671875	-1094.733032226562	1830.8115234375	-692.606689453125	-1099.022094726562	1834.552612304688	-563.1416015625	-1267.40576171875	1769.968505859375	-701.3026733398438	-1214.691284179688	1029.203735351562	-789.993408203125	-1181.442626953125	1024.88134765625	-429.8243103027344	-1097.905151367188	1095.276733398438	-484.587646484375	-1104.546020507812	1090.064331054688	-751.1564331054688	-1215.734497070312	526.7135009765625	-736.3534545898438	-1228.35107421875	672.4555053710938	-772.128662109375	-1351.977905273438	33.64732360839844	-701.8768920898438	-1326.389038085938	284.530517578125	-749.6768798828125	-1120.484375	35.54331970214844	-645.1513061523438	-1202.014892578125	40.51200866699219	-612.3916625976562	-1228.514770507812	32.25958251953125	-729.24951171875	-1419.846435546875	35.24020767211914	-639.1651000976562	-1183.808959960938	529.3898315429688	-458.7638549804688	-1162.06201171875	809.8550415039062	-435.7384033203125	-1351.668090820312	31.63953018188477	-450.9776000976562	-1227.65087890625	398.4834594726562	-441.340087890625	-1123.90380859375	41.58122253417969	-513.7747192382812	-1186.1943359375	30.59013175964355	-553.4192504882812	-1217.242919921875	37.68526840209961	-436.4272155761719	-1411.689208984375	33.91299438476562	-496.1343994140625	
144	1.43	-1304.002319335938	1123.21875	-550.7966918945312	-1302.466674804688	1123.766967773438	-685.9235229492188	-1308.837768554688	1156.453125	-621.885009765625	-1088.488403320312	1350.340087890625	-623.76220703125	-1343.564208984375	1306.952758789062	-626.8524780273438	-1302.967407226562	1598.233520507812	-645.0081176757812	-1122.107299804688	1485.8427734375	-630.3798217773438	-1363.549072265625	1416.88525390625	-554.5986938476562	-1307.599365234375	1577.003784179688	-747.6008911132812	-1219.458129882812	1558.888427734375	-813.0318603515625	-1239.482543945312	1425.8291015625	-881.1458129882812	-1223.78662109375	1203.61865234375	-893.30029296875	-1292.601806640625	1194.088500976562	-840.0751342773438	-1128.131469726562	948.2509155273438	-832.0411987304688	-1207.338500976562	921.4235229492188	-863.7396240234375	-1207.522094726562	1087.266845703125	-891.2025146484375	-1118.801635742188	755.0994262695312	-801.8338012695312	-1178.447875976562	846.39013671875	-857.8731689453125	-1114.972045898438	858.4828491210938	-837.2522583007812	-1253.188354492188	1582.5947265625	-462.4128112792969	-1273.352661132812	1510.973754882812	-397.3651123046875	-1285.680053710938	1215.22607421875	-372.0369873046875	-1293.88427734375	1213.913208007812	-468.2693176269531	-1145.382568359375	970.6997680664062	-387.9807434082031	-1218.647705078125	955.0626831054688	-353.5853881835938	-1262.48046875	1142.027587890625	-356.1570129394531	-1122.409301757812	776.15869140625	-403.626953125	-1117.47509765625	862.739013671875	-382.4427185058594	-1182.773681640625	855.1027221679688	-349.4199523925781	-1262.047607421875	1769.581298828125	-566.660400390625	-1092.814453125	1830.583374023438	-693.2520141601562	-1097.1513671875	1834.2353515625	-563.7760620117188	-1265.472045898438	1769.843139648438	-702.0548095703125	-1214.5576171875	1029.056274414062	-790.7367553710938	-1180.738403320312	1024.469970703125	-430.6036376953125	-1097.582763671875	1094.875854492188	-485.5525817871094	-1104.267578125	1089.749877929688	-752.0985717773438	-1215.63818359375	526.5253295898438	-737.0730590820312	-1228.333740234375	672.2809448242188	-772.9104614257812	-1352.005249023438	33.52158737182617	-701.9888305664062	-1326.301879882812	284.318115234375	-750.2136840820312	-1120.57568359375	35.56623458862305	-645.1055297851562	-1202.272827148438	40.48352813720703	-612.4539184570312	-1228.529541015625	32.21589660644531	-729.3112182617188	-1419.977294921875	35.104736328125	-639.39501953125	-1178.733520507812	528.8055419921875	-460.1699829101562	-1159.47705078125	809.5653076171875	-436.898681640625	-1351.519653320312	32.49991607666016	-451.1646423339844	-1223.863525390625	398.0896606445312	-442.3507690429688	-1123.815795898438	41.57061767578125	-513.6651611328125	-1186.10791015625	30.76034355163574	-553.3719482421875	-1217.117065429688	37.68651962280273	-436.3948364257812	-1411.475830078125	35.17062377929688	-496.3727111816406	
145	1.44	-1303.730834960938	1122.876098632812	-551.3877563476562	-1302.1708984375	1123.703247070312	-686.5655517578125	-1308.448120117188	1156.424682617188	-622.568359375	-1087.48486328125	1349.9345703125	-624.6052856445312	-1342.703247070312	1307.19287109375	-627.6235961914062	-1301.298095703125	1598.373901367188	-645.8652954101562	-1120.728515625	1485.540161132812	-631.2498168945312	-1362.350830078125	1417.1494140625	-555.4164428710938	-1305.947143554688	1577.14013671875	-748.4500122070312	-1217.846557617188	1558.798583984375	-813.885009765625	-1238.128051757812	1425.787231445312	-882.0123901367188	-1222.767944335938	1203.526123046875	-894.1983642578125	-1291.642456054688	1194.122436523438	-841.0609741210938	-1127.532470703125	948.0140991210938	-832.8306884765625	-1206.75390625	921.3125610351562	-864.6004638671875	-1206.695434570312	1087.148803710938	-892.0806274414062	-1118.438232421875	754.8862915039062	-802.6088256835938	-1177.96533203125	846.243896484375	-858.708251953125	-1114.455688476562	858.2694091796875	-838.057373046875	-1251.4765625	1582.583251953125	-463.222412109375	-1271.82373046875	1510.972778320312	-398.1644287109375	-1284.848876953125	1215.256469726562	-372.8631896972656	-1293.015625	1213.957641601562	-469.0957641601562	-1144.724853515625	970.6268920898438	-388.7132263183594	-1218.027954101562	955.0040893554688	-354.3597412109375	-1261.802490234375	1142.0048828125	-356.9932556152344	-1121.97607421875	775.995849609375	-404.3709716796875	-1116.979614257812	862.5833129882812	-383.1746520996094	-1182.274658203125	855.0294799804688	-350.1921997070312	-1260.106201171875	1769.348999023438	-567.4073486328125	-1090.823120117188	1830.352416992188	-693.9010009765625	-1095.21240234375	1833.911865234375	-564.4171752929688	-1263.4619140625	1769.716918945312	-702.8170166015625	-1214.443359375	1028.909790039062	-791.466064453125	-1180.055297851562	1024.067016601562	-431.3681945800781	-1097.259155273438	1094.4853515625	-486.492919921875	-1103.968139648438	1089.436157226562	-753.025146484375	-1215.542114257812	526.3524780273438	-737.810302734375	-1228.363525390625	672.1151733398438	-773.7028198242188	-1352.044311523438	33.39524459838867	-702.1016845703125	-1326.253051757812	284.1195373535156	-750.7249145507812	-1120.6748046875	35.59499740600586	-645.074951171875	-1202.527954101562	40.47286987304688	-612.5278930664062	-1228.544067382812	32.16567230224609	-729.3871459960938	-1420.115844726562	34.98146057128906	-639.6209106445312	-1173.255249023438	528.30322265625	-461.6314697265625	-1156.834594726562	809.3167724609375	-438.1134948730469	-1351.34521484375	33.62269973754883	-451.395263671875	-1219.792358398438	397.8175659179688	-443.3941345214844	-1123.68017578125	41.56669235229492	-513.5325317382812	-1185.982543945312	30.96428489685059	-553.30322265625	-1216.960693359375	37.70878219604492	-436.3728942871094	-1411.233276367188	36.8018798828125	-496.6748657226562	
